<mxfile host="app.diagrams.net" modified="2023-08-30T15:38:25.541Z" agent="Mozilla/5.0 (X11; Linux x86_64) AppleWebKit/537.36 (KHTML, like Gecko) Chrome/115.0.0.0 Safari/537.36" etag="rNN6E0I1muBWj_rqr98W" version="21.7.0" type="device">
  <diagram name="Page-1" id="nf_grOX8h9ruj5sb9o0s">
    <mxGraphModel dx="1793" dy="1008" grid="1" gridSize="10" guides="1" tooltips="1" connect="1" arrows="1" fold="1" page="1" pageScale="1" pageWidth="850" pageHeight="1100" math="0" shadow="0">
      <root>
        <mxCell id="0" />
        <mxCell id="1" parent="0" />
        <mxCell id="HboR-xuGKABugTuBtemc-36" value="User downloads webapp from lnplay.live" style="edgeStyle=orthogonalEdgeStyle;rounded=0;orthogonalLoop=1;jettySize=auto;html=1;exitX=0.5;exitY=1;exitDx=0;exitDy=0;entryX=0.5;entryY=0;entryDx=0;entryDy=0;" edge="1" parent="1" source="HboR-xuGKABugTuBtemc-23" target="SYbJUk9G8IYX7841sPek-1">
          <mxGeometry relative="1" as="geometry" />
        </mxCell>
        <mxCell id="HboR-xuGKABugTuBtemc-23" value="AWS EC2" style="rounded=0;whiteSpace=wrap;html=1;verticalAlign=bottom;" vertex="1" parent="1">
          <mxGeometry x="144" y="209" width="160" height="120" as="geometry" />
        </mxCell>
        <mxCell id="HboR-xuGKABugTuBtemc-19" value="" style="rounded=0;whiteSpace=wrap;html=1;" vertex="1" parent="1">
          <mxGeometry x="377" y="369" width="850" height="420" as="geometry" />
        </mxCell>
        <mxCell id="SYbJUk9G8IYX7841sPek-1" value="Browser running&amp;nbsp;&lt;br&gt;lnplaylive-frontend" style="rounded=0;whiteSpace=wrap;html=1;" parent="1" vertex="1">
          <mxGeometry x="188" y="547" width="120" height="60" as="geometry" />
        </mxCell>
        <mxCell id="SYbJUk9G8IYX7841sPek-2" value="Development Environment 127.0.0.1" style="text;html=1;strokeColor=none;fillColor=none;align=center;verticalAlign=bottom;whiteSpace=wrap;rounded=0;" parent="1" vertex="1">
          <mxGeometry x="797" y="759" width="220" height="20" as="geometry" />
        </mxCell>
        <mxCell id="SYbJUk9G8IYX7841sPek-3" value="nginx listening on HTTP/127.0.0.1:8080" style="rounded=0;whiteSpace=wrap;html=1;verticalAlign=top;" parent="1" vertex="1">
          <mxGeometry x="399" y="439" width="120" height="260" as="geometry" />
        </mxCell>
        <mxCell id="SYbJUk9G8IYX7841sPek-4" value="CLN websocket interface: 127.0.0.1:6001" style="rounded=0;whiteSpace=wrap;html=1;align=center;verticalAlign=bottom;" parent="1" vertex="1">
          <mxGeometry x="557" y="399" width="640" height="350" as="geometry" />
        </mxCell>
        <mxCell id="SYbJUk9G8IYX7841sPek-5" value="" style="curved=1;endArrow=classic;html=1;rounded=0;exitX=1;exitY=0.5;exitDx=0;exitDy=0;entryX=0;entryY=0.5;entryDx=0;entryDy=0;" parent="1" source="SYbJUk9G8IYX7841sPek-1" target="SYbJUk9G8IYX7841sPek-3" edge="1">
          <mxGeometry width="50" height="50" relative="1" as="geometry">
            <mxPoint x="544" y="509" as="sourcePoint" />
            <mxPoint x="594" y="459" as="targetPoint" />
            <Array as="points" />
          </mxGeometry>
        </mxCell>
        <mxCell id="SYbJUk9G8IYX7841sPek-6" value="" style="curved=1;endArrow=classic;html=1;rounded=0;exitX=1;exitY=0.5;exitDx=0;exitDy=0;entryX=0;entryY=0.5;entryDx=0;entryDy=0;" parent="1" target="SYbJUk9G8IYX7841sPek-4" edge="1" source="SYbJUk9G8IYX7841sPek-3">
          <mxGeometry width="50" height="50" relative="1" as="geometry">
            <mxPoint x="442" y="618.5" as="sourcePoint" />
            <mxPoint x="607" y="618.5" as="targetPoint" />
            <Array as="points" />
          </mxGeometry>
        </mxCell>
        <mxCell id="HboR-xuGKABugTuBtemc-5" value="LXD_CLUSTER" style="rounded=0;whiteSpace=wrap;html=1;align=center;verticalAlign=bottom;" vertex="1" parent="1">
          <mxGeometry x="1409" y="501" width="200" height="267" as="geometry" />
        </mxCell>
        <mxCell id="HboR-xuGKABugTuBtemc-7" value="backend.lnplay.live:8443" style="text;html=1;strokeColor=none;fillColor=none;align=center;verticalAlign=middle;whiteSpace=wrap;rounded=0;" vertex="1" parent="1">
          <mxGeometry x="1269" y="579" width="140" height="30" as="geometry" />
        </mxCell>
        <mxCell id="HboR-xuGKABugTuBtemc-8" value="" style="ellipse;whiteSpace=wrap;html=1;aspect=fixed;" vertex="1" parent="1">
          <mxGeometry x="1399" y="604" width="20" height="20" as="geometry" />
        </mxCell>
        <mxCell id="HboR-xuGKABugTuBtemc-11" style="edgeStyle=orthogonalEdgeStyle;rounded=0;orthogonalLoop=1;jettySize=auto;html=1;exitX=1;exitY=0.5;exitDx=0;exitDy=0;entryX=0;entryY=0.5;entryDx=0;entryDy=0;" edge="1" parent="1" source="HboR-xuGKABugTuBtemc-9" target="HboR-xuGKABugTuBtemc-8">
          <mxGeometry relative="1" as="geometry">
            <mxPoint x="1267" y="789" as="targetPoint" />
          </mxGeometry>
        </mxCell>
        <mxCell id="HboR-xuGKABugTuBtemc-14" value="cluster_host_0" style="rounded=0;whiteSpace=wrap;html=1;" vertex="1" parent="1">
          <mxGeometry x="1449" y="526.75" width="120" height="56" as="geometry" />
        </mxCell>
        <mxCell id="HboR-xuGKABugTuBtemc-15" value="cluster_host_1" style="rounded=0;whiteSpace=wrap;html=1;" vertex="1" parent="1">
          <mxGeometry x="1451" y="593.75" width="120" height="56" as="geometry" />
        </mxCell>
        <mxCell id="HboR-xuGKABugTuBtemc-16" value="cluster_host_n" style="rounded=0;whiteSpace=wrap;html=1;" vertex="1" parent="1">
          <mxGeometry x="1453" y="661.75" width="120" height="56" as="geometry" />
        </mxCell>
        <mxCell id="HboR-xuGKABugTuBtemc-21" value="&lt;div style=&quot;&quot;&gt;&lt;br&gt;&lt;/div&gt;" style="rounded=0;whiteSpace=wrap;html=1;verticalAlign=top;align=left;" vertex="1" parent="1">
          <mxGeometry x="597" y="429" width="580" height="300" as="geometry" />
        </mxCell>
        <mxCell id="HboR-xuGKABugTuBtemc-4" value="&lt;div style=&quot;&quot;&gt;&lt;span style=&quot;background-color: initial;&quot;&gt;provision_method -&lt;/span&gt;&lt;span style=&quot;background-color: initial;&quot;&gt;&amp;nbsp;runs every time a BOLT11 invoice gets paid.&lt;/span&gt;&lt;br&gt;&lt;/div&gt;&lt;div style=&quot;&quot;&gt;&lt;span style=&quot;background-color: initial;&quot;&gt;&amp;nbsp; 1 - Check if payment is in reference to a BOLT12 Product Offer. If not, quit.&lt;/span&gt;&lt;/div&gt;&amp;nbsp; 2 - Calculate expiration date based on AMOUNT_PAID.&lt;div style=&quot;&quot;&gt;&lt;span style=&quot;background-color: initial;&quot;&gt;&amp;nbsp; 3 - Use Sovereign Stack to switch to a new lxc project.&lt;/span&gt;&lt;/div&gt;&lt;div style=&quot;&quot;&gt;&lt;span style=&quot;background-color: initial;&quot;&gt;&amp;nbsp; 3 - Use ss-up to bring up a new clams-server VM.&lt;/span&gt;&lt;/div&gt;&lt;div style=&quot;&quot;&gt;&lt;span style=&quot;background-color: initial;&quot;&gt;&amp;nbsp; 4 - Deploy roygbiv-stack (clams-server) to the new VM.&lt;/span&gt;&lt;/div&gt;&lt;div style=&quot;&quot;&gt;&lt;span style=&quot;background-color: initial;&quot;&gt;&amp;nbsp; 5 - Save connection strings and store them in CLN database as JSON object.&lt;/span&gt;&lt;/div&gt;&lt;div style=&quot;&quot;&gt;&lt;span style=&quot;background-color: initial;&quot;&gt;&lt;br&gt;&lt;/span&gt;&lt;/div&gt;&lt;div style=&quot;&quot;&gt;&lt;span style=&quot;background-color: initial;&quot;&gt;orderstatus &amp;lt;pre_image&amp;gt;&lt;/span&gt;&lt;/div&gt;&lt;div style=&quot;&quot;&gt;&lt;span style=&quot;background-color: initial;&quot;&gt;&amp;nbsp; - returns a JSON object with everything related to your lnplay.live deployment including connection strings.&lt;/span&gt;&lt;/div&gt;" style="rounded=0;whiteSpace=wrap;html=1;verticalAlign=top;align=left;" vertex="1" parent="1">
          <mxGeometry x="622" y="449.75" width="530" height="259.25" as="geometry" />
        </mxCell>
        <mxCell id="HboR-xuGKABugTuBtemc-9" value="LXD CLIENT" style="ellipse;whiteSpace=wrap;html=1;aspect=fixed;" vertex="1" parent="1">
          <mxGeometry x="1127" y="588.75" width="52.5" height="52.5" as="geometry" />
        </mxCell>
        <mxCell id="HboR-xuGKABugTuBtemc-22" value="lnplay.live HTTPS endpoint" style="rounded=0;whiteSpace=wrap;html=1;" vertex="1" parent="1">
          <mxGeometry x="164" y="239" width="120" height="60" as="geometry" />
        </mxCell>
        <mxCell id="HboR-xuGKABugTuBtemc-24" value="&lt;span style=&quot;color: rgb(0, 0, 0); font-family: Helvetica; font-size: 12px; font-style: normal; font-variant-ligatures: normal; font-variant-caps: normal; font-weight: 400; letter-spacing: normal; orphans: 2; text-align: left; text-indent: 0px; text-transform: none; widows: 2; word-spacing: 0px; -webkit-text-stroke-width: 0px; background-color: rgb(251, 251, 251); text-decoration-thickness: initial; text-decoration-style: initial; text-decoration-color: initial; float: none; display: inline !important;&quot;&gt;lnplay-live.sh - CLN PLUGIN&lt;/span&gt;" style="text;whiteSpace=wrap;html=1;" vertex="1" parent="1">
          <mxGeometry x="797" y="675" width="190" height="40" as="geometry" />
        </mxCell>
        <mxCell id="HboR-xuGKABugTuBtemc-25" value="LXD API" style="text;html=1;strokeColor=none;fillColor=none;align=center;verticalAlign=middle;whiteSpace=wrap;rounded=0;" vertex="1" parent="1">
          <mxGeometry x="1269" y="559" width="140" height="30" as="geometry" />
        </mxCell>
        <mxCell id="HboR-xuGKABugTuBtemc-26" value="6001" style="text;html=1;strokeColor=none;fillColor=none;align=center;verticalAlign=middle;whiteSpace=wrap;rounded=0;" vertex="1" parent="1">
          <mxGeometry x="399" y="610.75" width="60" height="30" as="geometry" />
        </mxCell>
        <mxCell id="HboR-xuGKABugTuBtemc-27" value="6002" style="text;html=1;strokeColor=none;fillColor=none;align=center;verticalAlign=middle;whiteSpace=wrap;rounded=0;" vertex="1" parent="1">
          <mxGeometry x="400" y="626.75" width="60" height="30" as="geometry" />
        </mxCell>
        <mxCell id="HboR-xuGKABugTuBtemc-28" value="..." style="text;html=1;strokeColor=none;fillColor=none;align=center;verticalAlign=middle;whiteSpace=wrap;rounded=0;" vertex="1" parent="1">
          <mxGeometry x="401" y="644.75" width="60" height="30" as="geometry" />
        </mxCell>
        <mxCell id="HboR-xuGKABugTuBtemc-29" value="6005" style="text;html=1;strokeColor=none;fillColor=none;align=center;verticalAlign=middle;whiteSpace=wrap;rounded=0;" vertex="1" parent="1">
          <mxGeometry x="400" y="665.75" width="60" height="30" as="geometry" />
        </mxCell>
        <mxCell id="HboR-xuGKABugTuBtemc-30" value="websocket ports" style="text;html=1;strokeColor=none;fillColor=none;align=center;verticalAlign=middle;whiteSpace=wrap;rounded=0;" vertex="1" parent="1">
          <mxGeometry x="409" y="590.75" width="95" height="30" as="geometry" />
        </mxCell>
        <mxCell id="HboR-xuGKABugTuBtemc-31" value="User" style="shape=umlActor;verticalLabelPosition=bottom;verticalAlign=top;html=1;outlineConnect=0;" vertex="1" parent="1">
          <mxGeometry x="144" y="539" width="30" height="60" as="geometry" />
        </mxCell>
      </root>
    </mxGraphModel>
  </diagram>
</mxfile>
